# Blender v2.81 (sub 16) OBJ File: 'Rock2.blend'
# www.blender.org
mtllib Rock2.mtl
o Cube
v 0.587653 1.341111 -0.550458
v 1.229106 -0.456282 -0.992684
v 0.799583 1.503144 0.850458
v 1.251815 -0.565101 1.398364
v -1.019720 1.526664 -0.719965
v -1.176525 -0.467988 -1.167565
v -1.087085 -0.330956 1.051702
v -0.877486 0.694734 0.809958
v 0.044934 1.414066 0.734882
v -0.008978 -0.598293 1.481191
v 0.356754 1.467677 -0.573450
v -1.364092 -0.581383 -0.564732
v -0.446977 0.654508 0.779393
v -0.399700 1.581387 0.397206
v -0.944683 -0.561737 -1.275246
v 1.159605 -0.151233 -0.861548
v -0.557070 0.956424 0.441065
v 1.374054 -0.228555 1.437141
v 1.136281 1.010362 1.084347
v 0.857679 1.558938 -0.185135
v -0.780232 1.468904 0.220332
v 1.580727 -0.503207 0.192532
v -0.637757 0.651135 0.743658
v 0.806105 0.485449 -0.870378
v -0.792124 0.823788 0.680958
v 1.112570 0.535417 1.081181
v -1.137161 0.656546 -1.087441
v 0.246228 -0.618538 1.500491
v -1.059439 1.611981 -0.415367
v 1.652753 -0.523972 -0.329942
v 1.009076 -0.628886 -1.123014
v -1.046606 1.447715 -0.759629
v 0.588169 1.314668 -0.453281
v 1.542486 -0.615322 0.954462
v -0.972525 1.234867 0.219345
v -0.911946 0.918503 0.402931
v 1.356600 -0.758010 -0.628891
v -1.153950 -0.722549 -0.636675
v 0.956817 1.219505 -0.226842
v -1.206821 1.422504 -0.449814
v -0.447904 0.861651 0.491204
v -0.449952 1.667856 0.246384
v -0.223560 1.639695 0.429945
v -0.590583 1.532872 0.228187
v -0.160117 1.438306 0.506890
v 1.770324 -0.213218 0.934537
v 0.715044 0.472475 -0.681337
v 1.414036 -0.158866 -0.716129
v 1.713988 -0.157024 -0.322016
v -1.090287 -0.678672 -1.013239
v 1.228404 -0.706862 -0.885239
v -0.821769 0.841351 0.509220
v 1.348134 -0.810985 -0.352590
v 0.920362 0.493207 -0.246840
v 1.114864 0.529719 0.809855
v -0.374651 0.966753 0.441900
vt 0.781250 0.718750
vt 0.781250 0.687500
vt 0.812500 0.687500
vt 0.812500 0.656250
vt 0.625000 0.593750
vt 0.468750 0.500000
vt 0.375000 0.281250
vt 0.468750 0.250000
vt 0.406250 0.750000
vt 0.375000 0.875000
vt 0.375000 0.843750
vt 0.375000 0.656250
vt 0.375000 0.593750
vt 0.406250 0.593750
vt 0.875000 0.500000
vt 0.875000 0.593750
vt 0.562500 0.593750
vt 0.531250 0.750000
vt 0.468750 0.718750
vt 0.406250 0.500000
vt 0.468750 0.531250
vt 0.625000 0.750000
vt 0.625000 0.875000
vt 0.468750 0.750000
vt 0.406250 0.718750
vt 0.375000 0.718750
vt 0.500000 0.968750
vt 0.562500 0.968750
vt 0.531250 1.000000
vt 0.625000 0.156250
vt 0.562500 0.156250
vt 0.562500 0.093750
vt 0.625000 0.093750
vt 0.593750 0.968750
vt 0.531250 0.062500
vt 0.500000 0.937500
vt 0.375000 1.000000
vt 0.375000 0.468750
vt 0.125000 0.562500
vt 0.125000 0.500000
vt 0.156250 0.531250
vt 0.750000 0.750000
vt 0.531250 0.031250
vt 0.375000 0.187500
vt 0.343750 0.593750
vt 0.843750 0.656250
vt 0.625000 0.531250
vt 0.375000 0.000000
vt 0.500000 0.000000
vt 0.375000 0.250000
vt 0.500000 1.000000
vt 0.343750 0.562500
vt 0.343750 0.531250
vt 0.375000 0.500000
vt 0.531250 0.000000
vt 0.406250 0.531250
vt 0.625000 0.437500
vt 0.625000 0.500000
vt 0.687500 0.500000
vt 0.625000 0.250000
vt 0.343750 0.500000
vt 0.281250 0.750000
vt 0.156250 0.562500
vt 0.468750 0.593750
vt 0.125000 0.750000
vt 0.375000 0.750000
vt 0.593750 1.000000
vt 0.593750 0.250000
vt 0.156250 0.500000
vt 0.875000 0.656250
vt 0.250000 0.750000
vt 0.593750 0.000000
vn -0.2620 0.2713 0.9262
vn 0.0947 0.9949 0.0358
vn 0.1242 0.1703 -0.9775
vn -0.0487 0.2958 0.9540
vn 0.9760 -0.1659 0.1411
vn 0.1774 0.9534 -0.2439
vn 0.9909 0.0305 -0.1308
vn 0.7938 0.4465 0.4130
vn -0.1801 0.3186 0.9306
vn -0.0776 0.3991 0.9136
vn 0.8691 -0.4939 -0.0291
vn 0.3447 0.5771 0.7404
vn 0.9987 -0.0499 0.0095
vn -0.7550 0.5131 0.4082
vn 0.7505 0.6609 -0.0075
vn -0.6968 0.5707 0.4345
vn -0.7109 0.2319 0.6640
vn -0.9426 0.0132 0.3337
vn -0.2498 0.4053 0.8794
vn 0.0835 0.2348 -0.9685
vn -0.7562 -0.5589 -0.3404
vn -0.9523 -0.2418 0.1864
vn -0.0284 0.9910 0.1309
vn -0.8016 -0.1342 0.5826
vn 0.6758 -0.7269 0.1221
vn -0.6236 0.5788 0.5255
vn 0.5542 0.2943 -0.7786
vn -0.9795 0.1778 -0.0948
vn -0.1747 0.1700 0.9698
vn -0.3935 0.0790 -0.9159
vn 0.3139 0.5593 0.7672
vn 0.8587 -0.2040 -0.4701
vn -0.7190 0.6679 0.1924
vn 0.9599 0.2719 0.0685
vn 0.8309 0.5558 -0.0251
vn 0.7904 -0.1189 -0.6010
vn -0.3528 0.7562 0.5511
vn 0.3058 0.4009 -0.8636
vn -0.6199 0.5736 0.5354
vn 0.0744 0.9452 -0.3180
vn -0.7865 0.5281 0.3201
vn -0.1369 0.4473 0.8839
vn -0.9545 0.2722 0.1214
vn 0.0059 -0.9486 -0.3165
vn -0.0440 -0.9960 0.0773
vn 0.9042 -0.0337 -0.4257
vn 0.8986 -0.4347 -0.0597
vn -0.4928 -0.8432 0.2151
vn 0.7061 0.6081 -0.3627
vn 0.4686 0.4402 0.7659
vn 0.5532 0.2589 -0.7918
vn 0.2904 0.1629 0.9429
vn -0.5916 -0.7832 -0.1913
vn 0.6497 -0.3011 -0.6980
vn 0.1340 0.3424 -0.9299
vn 0.1916 0.4241 -0.8851
vn -0.0144 -0.9819 -0.1887
vn -0.9689 0.2229 0.1072
vn 0.7682 -0.3414 0.5416
vn 0.2912 0.6874 0.6654
vn -0.1496 0.7355 0.6608
vn 0.8972 0.0658 0.4367
vn -0.8631 0.2745 -0.4240
vn 0.4561 0.4371 -0.7751
vn -0.0291 0.4411 0.8970
vn 0.5503 0.7204 -0.4222
vn -0.1775 0.3676 0.9129
vn 0.7502 0.6612 -0.0041
vn -0.8022 0.4627 -0.3772
vn 0.5673 0.2391 -0.7880
vn 0.8884 -0.1484 -0.4344
vn -0.6098 0.6426 0.4639
vn 0.6194 0.7723 -0.1407
vn -0.0133 -0.9819 -0.1890
vn 0.0290 0.9865 -0.1612
vn 0.4496 0.8625 0.2323
vn 0.1079 -0.1524 0.9824
vn -0.3161 0.2559 0.9136
vn -0.1514 0.3347 0.9301
vn -0.9563 0.0540 -0.2874
vn -0.7356 0.6213 -0.2699
vn -0.6665 0.0270 0.7450
vn 0.0004 -0.9133 -0.4074
vn -0.3134 0.8877 0.3374
vn -0.3904 0.0509 0.9192
vn 0.9896 0.1402 0.0329
vn 0.6781 0.4881 0.5495
vn 0.3894 -0.8632 0.3212
vn 0.7302 -0.3858 0.5639
vn -0.1241 0.9912 0.0464
vn 0.0682 -0.9854 0.1562
vn 0.1139 0.4148 -0.9028
vn -0.0056 -0.9932 -0.1167
vn 0.1171 0.3687 -0.9222
vn -0.5217 -0.6327 -0.5723
vn 0.5206 0.2779 -0.8073
vn 0.9828 -0.0444 -0.1794
vn -0.3184 -0.9206 0.2261
vn -0.1228 0.8057 0.5795
vn 0.6857 -0.7185 -0.1168
vn 0.7621 -0.1643 -0.6263
vn -0.0600 -0.9871 -0.1483
vn -0.0865 -0.9907 0.1049
vn 0.3654 0.7099 -0.6021
vn -0.3597 0.9199 0.1562
vn -0.0238 0.3451 0.9383
vn -0.1441 0.4759 0.8676
vn -0.3020 0.0087 0.9533
usemtl Material
s off
f 45/1/1 43/2/1 14/3/1
f 42/4/2 43/2/2 20/5/2
f 24/6/3 15/7/3 27/8/3
f 18/9/4 10/10/4 28/11/4
f 22/12/5 30/13/5 49/14/5
f 5/15/6 29/16/6 42/4/6
f 39/17/7 19/18/7 55/19/7
f 16/20/8 24/6/8 47/21/8
f 19/18/9 3/22/9 9/23/9
f 10/10/10 18/9/10 26/24/10
f 46/25/11 34/26/11 22/12/11
f 23/27/12 41/28/12 25/29/12
f 19/18/13 26/24/13 55/19/13
f 29/30/14 40/31/14 35/32/14
f 46/25/15 55/19/15 26/24/15
f 29/30/16 35/32/16 21/33/16
f 9/23/17 45/1/17 56/34/17
f 36/35/18 35/32/18 40/31/18
f 10/10/19 13/36/19 7/37/19
f 31/38/20 15/7/20 24/6/20
f 12/39/21 6/40/21 50/41/21
f 40/31/22 27/8/22 36/35/22
f 45/1/23 9/42/23 20/5/23
f 52/43/24 36/35/24 12/44/24
f 22/12/25 53/45/25 30/13/25
f 29/16/26 44/46/26 42/4/26
f 47/21/27 33/47/27 39/17/27
f 7/48/28 8/49/28 52/43/28
f 9/23/29 13/36/29 26/24/29
f 15/7/30 6/50/30 27/8/30
f 8/51/31 23/27/31 25/29/31
f 37/52/32 51/53/32 2/54/32
f 8/49/33 25/55/33 52/43/33
f 3/22/34 39/17/34 20/5/34
f 3/22/35 19/18/35 39/17/35
f 48/56/36 49/14/36 30/13/36
f 43/2/37 42/4/37 14/3/37
f 11/57/38 1/58/38 24/6/38
f 42/4/39 44/46/39 14/3/39
f 11/59/40 5/60/40 20/5/40
f 56/34/41 13/36/41 9/23/41
f 26/24/42 13/36/42 10/10/42
f 12/44/43 7/48/43 52/43/43
f 31/61/44 51/53/44 50/41/44
f 28/62/45 38/63/45 53/45/45
f 39/17/46 54/64/46 47/21/46
f 49/14/47 46/25/47 22/12/47
f 7/65/48 12/39/48 38/63/48
f 54/64/49 16/20/49 47/21/49
f 43/2/50 45/1/50 20/5/50
f 33/47/51 20/5/51 39/17/51
f 23/27/52 8/51/52 7/37/52
f 50/41/53 38/63/53 12/39/53
f 51/53/54 31/61/54 2/54/54
f 27/8/55 11/57/55 24/6/55
f 16/20/56 2/54/56 31/38/56
f 51/53/57 37/52/57 53/45/57
f 12/44/58 36/35/58 27/8/58
f 34/26/59 18/9/59 4/66/59
f 17/67/60 25/29/60 41/28/60
f 36/35/61 52/43/61 17/67/61
f 1/58/62 47/21/62 24/6/62
f 32/68/63 27/8/63 40/31/63
f 2/54/64 16/20/64 48/56/64
f 41/28/65 56/34/65 17/67/65
f 49/14/66 48/56/66 54/64/66
f 13/36/67 23/27/67 7/37/67
f 46/25/68 49/14/68 55/19/68
f 5/60/69 32/68/69 40/31/69
f 20/5/70 33/47/70 11/59/70
f 2/54/71 48/56/71 37/52/71
f 56/34/72 41/28/72 13/36/72
f 54/64/73 55/19/73 49/14/73
f 53/45/74 38/63/74 51/53/74
f 20/5/75 5/15/75 42/4/75
f 1/58/76 11/59/76 33/47/76
f 18/9/77 28/11/77 4/66/77
f 21/33/78 35/32/78 17/67/78
f 44/46/79 21/33/79 17/67/79
f 27/8/80 6/50/80 12/44/80
f 40/31/81 29/30/81 5/60/81
f 14/3/82 44/46/82 56/34/82
f 31/61/83 50/41/83 15/69/83
f 29/16/84 21/70/84 44/46/84
f 56/34/85 45/1/85 14/3/85
f 1/58/86 33/47/86 47/21/86
f 46/25/87 26/24/87 18/9/87
f 53/45/88 22/12/88 28/62/88
f 34/26/89 46/25/89 18/9/89
f 9/42/90 3/22/90 20/5/90
f 34/26/91 4/66/91 28/62/91
f 11/59/92 32/68/92 5/60/92
f 38/63/93 50/41/93 51/53/93
f 27/8/94 32/68/94 11/57/94
f 6/40/95 15/69/95 50/41/95
f 24/6/96 16/20/96 31/38/96
f 55/19/97 54/64/97 39/17/97
f 10/71/98 7/65/98 38/63/98
f 13/36/99 41/28/99 23/27/99
f 37/52/100 30/13/100 53/45/100
f 37/52/101 48/56/101 30/13/101
f 22/12/102 34/26/102 28/62/102
f 38/63/103 28/62/103 10/71/103
f 48/56/104 16/20/104 54/64/104
f 25/55/105 17/72/105 52/43/105
f 17/67/106 56/34/106 44/46/106
f 35/32/107 36/35/107 17/67/107
f 19/18/108 9/23/108 26/24/108
