# Blender v2.81 (sub 16) OBJ File: 'Rock1.blend'
# www.blender.org
mtllib Rock1.mtl
o Cube
v 1.313322 -0.297278 -1.162020
v 0.609572 1.636614 0.780029
v 1.239400 -0.473097 1.264293
v -0.714118 1.547355 -0.729513
v -1.142782 -0.298585 -1.171051
v -0.803560 1.823777 0.928714
v -1.479182 -0.326945 1.470379
v -0.781877 1.607087 0.030471
v 0.156749 1.570414 -0.559945
v -1.094716 1.551262 1.146053
v 1.115489 0.501857 1.151763
v -0.753994 1.655262 -0.432834
v -0.865261 1.380882 -0.837020
v 0.344744 1.773929 0.839603
v -0.613389 -0.810246 1.614393
v -0.509652 1.593658 -0.730915
v 0.584189 1.051729 -0.910509
v 1.075706 1.229254 1.026765
v 0.797621 1.270144 1.254784
v 0.017541 1.684751 -0.437257
v 0.588104 1.608860 0.896356
v 0.414528 1.342418 -0.705347
v -0.546933 1.637839 1.122146
v -1.494832 -0.493139 0.903165
v -0.795071 -0.363250 -1.259111
v 1.373167 0.013346 -1.156965
v -0.814640 1.778859 0.976819
v 1.237621 -0.156998 1.292974
v 0.945228 -0.700105 1.432828
v -0.680156 1.487044 -0.635597
v 0.493927 1.459849 -0.099402
v -0.327789 -0.906066 1.565578
v 0.709249 1.003414 -0.824280
v -0.266410 0.974478 -1.338708
v -0.824760 1.684362 -0.224120
v 0.684804 1.561198 0.837718
v 0.116314 1.535472 -0.610194
v -0.837380 1.541848 0.020902
v -0.482132 1.600169 -0.610736
v 0.449776 1.697757 0.306980
v 0.697139 1.481417 1.094041
v 0.443402 1.709073 0.878691
v -1.110631 1.600034 0.997911
v 0.589192 1.353683 -0.195823
v 1.212512 0.561954 0.995187
v 1.181525 0.920127 0.962308
v -0.478600 1.237473 -1.040258
v 0.293075 1.365776 -0.766440
v 0.492954 1.200405 -0.858525
v 0.908733 1.469124 0.325996
v 1.003161 1.396627 0.843339
v -0.788994 1.537660 -0.444041
v -0.263215 1.595512 1.087580
v -0.480847 1.705436 1.017343
v -0.266337 1.461591 1.166911
v 0.946399 1.384364 0.987841
v 0.297696 1.484754 -0.604378
v 0.603391 1.152981 -0.744278
v -0.786572 0.067962 -1.334144
v -0.248818 0.031607 -1.485976
v -0.234951 1.245071 -1.056058
v -0.845542 1.790659 0.891295
v 0.372612 1.431410 -0.304859
v 0.431011 1.448454 -0.107371
v -0.220836 1.584637 -0.593553
v 1.096264 0.910133 1.081805
vt 0.531250 0.312500
vt 0.500000 0.343750
vt 0.406250 0.281250
vt 0.687500 0.656250
vt 0.625000 0.750000
vt 0.562500 0.656250
vt 0.125000 0.718750
vt 0.125000 0.500000
vt 0.156250 0.500000
vt 0.750000 0.562500
vt 0.656250 0.593750
vt 0.656250 0.531250
vt 0.531250 0.906250
vt 0.562500 0.937500
vt 0.562500 1.000000
vt 0.781250 0.531250
vt 0.812500 0.531250
vt 0.500000 0.812500
vt 0.531250 0.812500
vt 0.625000 0.375000
vt 0.593750 0.375000
vt 0.500000 0.687500
vt 0.531250 0.687500
vt 0.531250 0.718750
vt 0.375000 0.250000
vt 0.375000 0.031250
vt 0.562500 0.250000
vt 0.562500 0.906250
vt 0.593750 0.812500
vt 0.562500 0.593750
vt 0.562500 0.437500
vt 0.750000 0.500000
vt 0.437500 0.718750
vt 0.437500 0.750000
vt 0.406250 0.750000
vt 0.812500 0.500000
vt 0.875000 0.531250
vt 0.406250 0.500000
vt 0.531250 0.468750
vt 0.562500 0.406250
vt 0.593750 0.406250
vt 0.531250 0.343750
vt 0.625000 0.312500
vt 0.500000 0.437500
vt 0.531250 0.437500
vt 0.593750 1.000000
vt 0.593750 0.937500
vt 0.562500 0.812500
vt 0.406250 0.343750
vt 0.468750 0.718750
vt 0.625000 0.250000
vt 0.375000 0.500000
vt 0.593750 0.750000
vt 0.562500 0.031250
vt 0.593750 0.031250
vt 0.593750 0.125000
vt 0.625000 0.593750
vt 0.468750 0.687500
vt 0.343750 0.750000
vt 0.218750 0.750000
vt 0.625000 1.000000
vt 0.375000 0.906250
vt 0.625000 0.000000
vt 0.625000 0.125000
vt 0.593750 0.187500
vt 0.625000 0.156250
vt 0.875000 0.562500
vt 0.875000 0.593750
vt 0.875000 0.625000
vt 0.375000 1.000000
vt 0.625000 0.812500
vt 0.187500 0.750000
vt 0.375000 0.281250
vt 0.875000 0.500000
vt 0.375000 0.937500
vt 0.500000 0.468750
vt 0.875000 0.750000
vt 0.687500 0.750000
vt 0.375000 0.000000
vt 0.562500 0.000000
vt 0.593750 0.000000
vt 0.625000 0.187500
vt 0.625000 0.218750
vt 0.375000 0.781250
vt 0.125000 0.750000
vt 0.375000 0.750000
vn -0.5988 0.3399 -0.7252
vn 0.4468 0.8939 -0.0354
vn -0.2123 -0.9689 -0.1269
vn 0.6223 0.7425 -0.2481
vn 0.0027 0.2502 0.9682
vn 0.0873 0.7731 -0.6283
vn 0.0466 0.6188 0.7842
vn 0.0951 0.7798 -0.6188
vn 0.6849 0.6524 0.3244
vn -0.9708 0.1896 -0.1470
vn 0.6748 0.6185 -0.4027
vn 0.1709 0.4992 0.8495
vn 0.4031 0.9014 -0.1581
vn 0.5963 0.7998 -0.0688
vn 0.7700 0.2669 0.5796
vn -0.5013 0.8626 0.0681
vn 0.7774 0.5969 -0.1983
vn 0.4147 0.7278 -0.5462
vn 0.2956 0.7657 -0.5712
vn 0.6939 0.5766 -0.4314
vn 0.0271 0.5748 0.8179
vn 0.5352 0.8131 0.2290
vn 0.1893 0.3606 -0.9133
vn 0.6396 0.1705 0.7495
vn -0.2598 0.1443 -0.9548
vn 0.5240 0.8515 0.0206
vn -0.1617 0.6348 -0.7556
vn 0.1985 -0.0223 -0.9798
vn 0.4416 0.8626 0.2467
vn -0.6263 0.7480 -0.2197
vn 0.4328 0.7873 -0.4392
vn 0.9946 0.0907 0.0511
vn 0.1350 -0.9687 -0.2085
vn 0.3544 0.4949 -0.7934
vn 0.0747 0.7202 0.6897
vn 0.6318 0.1597 0.7585
vn 0.1230 0.1617 0.9791
vn -0.4781 0.8511 -0.2169
vn 0.4968 0.6627 0.5604
vn -0.2582 -0.9558 -0.1410
vn 0.4341 0.1469 -0.8888
vn -0.9908 -0.0882 -0.1023
vn 0.1777 0.4985 0.8485
vn -0.1157 0.8664 0.4858
vn 0.6530 0.7482 0.1171
vn -0.0063 0.1714 0.9852
vn -0.7331 0.6521 -0.1933
vn 0.5335 0.7808 0.3251
vn 0.4853 0.8533 0.1908
vn 0.6424 0.7524 0.1458
vn -0.3216 -0.9466 -0.0235
vn 0.4007 0.7650 -0.5041
vn 0.9398 0.3354 -0.0656
vn -0.7470 0.5907 0.3051
vn -0.3480 0.3137 -0.8835
vn -0.0902 0.8552 -0.5104
vn 0.5557 0.6061 0.5691
vn -0.2782 -0.1593 -0.9472
vn -0.1767 0.7979 0.5763
vn -0.1127 -0.1777 0.9776
vn 0.1717 0.7581 -0.6291
vn 0.2172 0.1566 0.9635
vn -0.0374 0.9942 0.1011
vn 0.4583 0.8879 0.0408
vn 0.4177 0.8032 -0.4248
vn 0.2321 0.6721 -0.7032
vn -0.3747 0.9134 -0.1592
vn 0.6011 0.5858 -0.5436
vn 0.0240 0.9720 -0.2339
vn 0.2198 0.7091 -0.6700
vn -0.9803 0.1954 -0.0302
vn -0.9720 0.1711 0.1608
vn -0.4801 0.8286 0.2878
vn -0.6040 0.2503 -0.7567
vn -0.7980 0.2879 -0.5295
vn -0.9709 0.1851 -0.1519
vn 0.9092 0.4017 -0.1096
vn -0.0508 0.2005 0.9784
vn 0.0662 0.2183 0.9736
vn 0.0877 0.8017 -0.5913
vn 0.8030 0.1230 0.5832
vn -0.4729 0.8206 0.3210
vn 0.5812 0.6634 -0.4712
vn 0.9397 0.3370 -0.0592
vn -0.1503 0.6408 -0.7529
vn 0.7466 0.6617 -0.0689
vn 0.4412 0.8627 0.2473
vn -0.5033 -0.8254 0.2557
vn 0.5377 -0.0732 0.8400
vn -0.8907 0.2978 -0.3435
vn -0.0671 0.7244 -0.6861
vn 0.4532 0.8906 -0.0380
vn 0.2367 0.7800 -0.5794
vn 0.0556 -0.5541 -0.8306
vn -0.2702 -0.1599 -0.9494
vn 0.0345 -0.9969 -0.0712
vn 0.2286 0.6904 -0.6864
vn 0.6359 0.7005 -0.3239
vn 0.1023 0.6715 0.7339
vn 0.5378 0.8120 0.2269
vn 0.0637 0.9956 -0.0685
vn -0.1740 0.9842 -0.0335
vn 0.5540 0.6742 -0.4884
vn -0.7731 0.3685 0.5162
vn -0.1638 0.9268 -0.3380
vn -0.0693 0.6507 -0.7562
vn 0.8439 0.5128 0.1578
vn -0.0393 0.9880 -0.1490
vn 0.0387 0.7091 0.7041
vn 0.5364 0.8139 0.2231
vn 0.7985 0.1519 0.5825
vn 0.0842 0.7341 0.6738
vn 0.1211 0.6410 0.7580
vn 0.0826 0.7772 -0.6238
vn 0.9983 0.0109 -0.0579
vn 0.4791 0.7856 -0.3916
vn 0.0581 0.2195 0.9739
vn 0.1891 0.7666 0.6137
vn -0.3022 0.6766 -0.6714
vn 0.8184 0.1343 0.5587
vn -0.7521 0.5592 0.3489
vn 0.4216 -0.8253 -0.3758
vn -0.0799 0.9964 0.0290
vn 0.9989 0.0345 0.0329
vn 0.6617 0.7095 -0.2425
vn -0.7913 0.6051 -0.0878
vn -0.0378 0.9368 -0.3479
vn 0.9743 -0.1897 0.1211
usemtl Material
s off
f 47/1/1 34/2/1 59/3/1
f 40/4/2 2/5/2 50/6/2
f 24/7/3 5/8/3 25/9/3
f 20/10/4 64/11/4 63/12/4
f 55/13/5 23/14/5 10/15/5
f 20/10/6 65/16/6 39/17/6
f 19/18/7 41/19/7 55/13/7
f 20/10/8 9/20/8 37/21/8
f 18/22/9 51/23/9 56/24/9
f 5/25/10 24/26/10 13/27/10
f 64/11/11 20/10/11 40/4/11
f 53/28/12 55/13/12 42/29/12
f 44/30/13 22/31/13 63/12/13
f 9/32/14 20/10/14 63/12/14
f 45/33/15 11/34/15 28/35/15
f 16/36/16 30/37/16 39/17/16
f 26/38/17 58/39/17 44/30/17
f 22/31/18 48/40/18 57/41/18
f 61/42/19 16/43/19 65/16/19
f 17/44/20 49/45/20 58/39/20
f 27/46/21 10/15/21 54/47/21
f 41/19/22 21/48/22 42/29/22
f 26/38/23 60/49/23 17/44/23
f 18/22/24 19/18/24 66/50/24
f 34/2/25 60/49/25 59/3/25
f 57/41/26 9/32/26 63/12/26
f 13/27/27 4/51/27 47/1/27
f 60/49/28 26/38/28 1/52/28
f 56/24/29 51/23/29 36/53/29
f 43/54/30 62/55/30 38/56/30
f 50/6/31 44/30/31 31/57/31
f 26/38/32 46/58/32 45/33/32
f 29/59/33 32/60/33 25/9/33
f 34/2/34 49/45/34 17/44/34
f 54/47/35 6/61/35 27/46/35
f 19/18/36 11/34/36 66/50/36
f 32/62/37 11/34/37 55/13/37
f 6/63/38 8/64/38 62/55/38
f 56/24/39 41/19/39 19/18/39
f 25/9/40 32/60/40 24/7/40
f 60/49/41 34/2/41 17/44/41
f 52/65/42 38/56/42 35/66/42
f 55/13/43 53/28/43 23/14/43
f 23/14/44 54/47/44 10/15/44
f 12/67/45 35/68/45 8/69/45
f 10/15/46 7/70/46 55/13/46
f 8/64/47 38/56/47 62/55/47
f 42/29/48 36/53/48 2/5/48
f 2/5/49 14/71/49 42/29/49
f 2/5/50 36/53/50 50/6/50
f 15/72/51 24/7/51 32/60/51
f 48/40/52 22/31/52 49/45/52
f 51/23/53 18/22/53 46/58/53
f 38/56/54 8/64/54 35/66/54
f 13/27/55 47/1/55 59/3/55
f 40/4/56 31/57/56 64/11/56
f 19/18/57 18/22/57 56/24/57
f 25/73/58 59/3/58 60/49/58
f 16/36/59 4/74/59 30/37/59
f 11/34/60 19/18/60 55/13/60
f 37/21/61 48/40/61 61/42/61
f 15/75/62 32/62/62 55/13/62
f 20/10/63 12/67/63 8/69/63
f 36/53/64 51/23/64 50/6/64
f 40/4/65 50/6/65 31/57/65
f 48/40/66 49/45/66 61/42/66
f 38/56/67 13/27/67 43/54/67
f 26/38/68 17/44/68 33/76/68
f 6/77/69 14/78/69 8/69/69
f 57/41/70 37/21/70 9/32/70
f 24/26/71 7/79/71 10/80/71
f 43/54/72 24/26/72 10/80/72
f 27/81/73 62/55/73 43/54/73
f 5/25/74 13/27/74 59/3/74
f 52/65/75 12/82/75 30/83/75
f 43/54/76 13/27/76 24/26/76
f 51/23/77 26/38/77 50/6/77
f 7/70/78 15/75/78 55/13/78
f 32/62/79 29/84/79 11/34/79
f 37/21/80 61/42/80 65/16/80
f 46/58/81 66/50/81 45/33/81
f 27/81/82 43/54/82 10/80/82
f 58/39/83 33/76/83 17/44/83
f 26/38/84 51/23/84 46/58/84
f 4/51/85 16/43/85 47/1/85
f 22/31/86 57/41/86 63/12/86
f 41/19/87 56/24/87 36/53/87
f 24/7/88 15/72/88 7/85/88
f 3/86/89 28/35/89 29/84/89
f 35/66/90 12/82/90 52/65/90
f 47/1/91 61/42/91 34/2/91
f 40/4/92 14/78/92 2/5/92
f 37/21/93 57/41/93 48/40/93
f 1/52/94 25/73/94 60/49/94
f 25/73/95 5/25/95 59/3/95
f 25/9/96 1/52/96 3/86/96
f 49/45/97 34/2/97 61/42/97
f 49/45/98 22/31/98 58/39/98
f 14/71/99 54/47/99 53/28/99
f 21/48/100 41/19/100 36/53/100
f 16/36/101 39/17/101 65/16/101
f 31/57/102 63/12/102 64/11/102
f 50/6/103 26/38/103 44/30/103
f 30/83/104 4/51/104 13/27/104
f 52/65/105 30/83/105 13/27/105
f 61/42/106 47/1/106 16/43/106
f 33/76/107 58/39/107 26/38/107
f 14/78/108 40/4/108 8/69/108
f 55/13/109 41/19/109 42/29/109
f 36/53/110 42/29/110 21/48/110
f 66/50/111 46/58/111 18/22/111
f 14/71/112 6/61/112 54/47/112
f 42/29/113 14/71/113 53/28/113
f 20/10/114 37/21/114 65/16/114
f 28/35/115 3/86/115 45/33/115
f 63/12/116 31/57/116 44/30/116
f 29/84/117 28/35/117 11/34/117
f 54/47/118 23/14/118 53/28/118
f 39/17/119 30/37/119 12/67/119
f 11/34/120 45/33/120 66/50/120
f 62/55/121 27/81/121 6/63/121
f 3/86/122 29/59/122 25/9/122
f 40/4/123 20/10/123 8/69/123
f 3/86/124 1/52/124 45/33/124
f 58/39/125 22/31/125 44/30/125
f 38/56/126 52/65/126 13/27/126
f 12/67/127 20/10/127 39/17/127
f 1/52/128 26/38/128 45/33/128
