# Blender v2.81 (sub 16) OBJ File: 'Tree3.blend'
# www.blender.org
mtllib Tree3.mtl
o Cylinder
v 0.120025 -0.556901 -0.289766
v 0.120025 2.087504 -0.289766
v 0.260782 -0.556901 -0.174249
v 0.260782 2.087504 -0.174249
v 0.313640 -0.556901 -0.000000
v 0.313640 2.087504 -0.000000
v 0.307614 -0.556901 0.061188
v 0.307614 2.087504 0.061188
v 0.120025 -0.556901 0.289766
v 0.120025 2.087504 0.289766
v -0.174249 -0.556901 0.260782
v -0.174249 2.087504 0.260782
v -0.221777 -0.556901 0.221777
v -0.221777 2.087504 0.221777
v -0.260782 -0.556901 0.174249
v -0.260782 2.087504 0.174249
v -0.289766 -0.556901 0.120025
v -0.289766 2.087504 0.120025
v -0.313640 -0.556901 -0.000000
v -0.313640 2.087504 -0.000000
v -0.307614 -0.556901 -0.061188
v -0.307614 2.087504 -0.061188
v -0.174249 -0.556901 -0.260782
v -0.174249 2.087504 -0.260782
vt 0.250000 1.000000
vt 0.218750 0.500000
vt 0.250000 0.500000
vt 0.028269 0.158156
vt 0.050447 0.116663
vt 0.080294 0.080294
vt 0.843750 0.500000
vt 0.937500 1.000000
vt 0.843750 1.000000
vt 0.562500 1.000000
vt 0.718750 0.500000
vt 0.718750 1.000000
vt 0.116663 0.050447
vt 0.341844 0.028269
vt 0.312500 1.000000
vt 0.312500 0.500000
vt 0.341844 0.471731
vt 0.116663 0.449553
vt 0.014612 0.296822
vt 0.562500 0.500000
vt 0.343750 0.500000
vt 0.093750 0.500000
vt 0.093750 1.000000
vt 0.406250 1.000000
vt 0.750000 1.000000
vt 0.750000 0.500000
vt 0.406250 0.500000
vt 0.375000 1.000000
vt 0.375000 0.500000
vt 0.343750 1.000000
vt 0.937500 0.500000
vt 0.218750 1.000000
vt 0.010000 0.250000
vt 0.485388 0.203178
vt 0.490000 0.250000
vt 0.449553 0.383337
vt 0.528269 0.158156
vt 0.514612 0.296822
vt 0.990000 0.250000
vt 0.616663 0.449553
vt 0.841844 0.471731
vt 0.949553 0.383337
vt 0.985388 0.203178
vt 0.841844 0.028269
vt 0.616663 0.050447
vt 0.580294 0.080294
vt 0.550447 0.116663
vt 0.510000 0.250000
vn -0.9952 0.0000 -0.0980
vn 0.0000 1.0000 -0.0000
vn 0.6344 0.0000 -0.7730
vn 0.7730 0.0000 0.6344
vn -0.9808 0.0000 0.1951
vn -0.8819 0.0000 0.4714
vn -0.0980 0.0000 -0.9952
vn -0.0980 0.0000 0.9952
vn 0.9569 0.0000 -0.2903
vn -0.6344 0.0000 0.7730
vn -0.8315 0.0000 -0.5556
vn 0.9952 0.0000 0.0980
vn -0.7730 0.0000 0.6344
vn 0.0000 -1.0000 0.0000
usemtl None
s off
f 20/1/1 21/2/1 19/3/1
f 18/4/2 16/5/2 14/6/2
f 3/7/3 2/8/3 4/9/3
f 10/10/4 7/11/4 8/12/4
f 14/6/2 12/13/2 10/14/2
f 18/15/5 19/3/5 17/16/5
f 2/17/2 24/18/2 22/19/2
f 10/10/4 9/20/4 7/11/4
f 17/16/6 15/21/6 18/15/6
f 2/8/7 23/22/7 24/23/7
f 2/17/2 22/19/2 18/4/2
f 12/24/8 9/20/8 10/10/8
f 18/4/2 14/6/2 2/17/2
f 3/7/9 6/25/9 5/26/9
f 11/27/10 14/28/10 13/29/10
f 24/23/11 23/22/11 21/2/11
f 6/25/12 8/12/12 5/26/12
f 18/15/5 20/1/5 19/3/5
f 12/24/8 11/27/8 9/20/8
f 14/28/13 16/30/13 13/29/13
f 2/8/7 1/31/7 23/22/7
f 8/12/12 7/11/12 5/26/12
f 24/23/11 21/2/11 22/32/11
f 22/19/2 20/33/2 18/4/2
f 3/7/3 1/31/3 2/8/3
f 16/30/6 18/15/6 15/21/6
f 10/14/2 8/34/2 6/35/2
f 12/24/10 14/28/10 11/27/10
f 6/35/2 4/36/2 2/17/2
f 4/9/9 6/25/9 3/7/9
f 10/14/2 6/35/2 2/17/2
f 20/1/1 22/32/1 21/2/1
f 14/6/2 10/14/2 2/17/2
f 17/37/14 21/38/14 5/39/14
f 13/29/13 16/30/13 15/21/13
f 21/38/14 23/40/14 1/41/14
f 1/41/14 3/42/14 5/39/14
f 5/39/14 7/43/14 9/44/14
f 9/44/14 11/45/14 13/46/14
f 13/46/14 15/47/14 17/37/14
f 17/37/14 19/48/14 21/38/14
f 21/38/14 1/41/14 5/39/14
f 5/39/14 9/44/14 13/46/14
f 13/46/14 17/37/14 5/39/14
o Cone
v 0.038661 1.735037 -1.017124
v 0.422714 1.763437 -0.954368
v 0.882970 1.795052 -0.601911
v 1.070558 1.804396 -0.052563
v 1.058306 1.801765 0.143071
v 0.922250 1.788319 0.508514
v 0.657058 1.765840 0.793836
v 0.303102 1.737748 0.955598
v -0.085731 1.708322 0.969175
v -0.450244 1.682039 0.832498
v -0.833146 1.656981 0.396815
v -0.232821 5.799747 0.017768
v -0.922532 1.653559 0.017026
v -0.774223 1.669636 -0.544051
v -0.340007 1.705714 -0.927738
v -0.080736 3.416161 -0.859154
v 0.248082 3.415843 -0.793591
v 0.633589 3.415494 -0.476917
v 0.778192 3.415398 0.000563
v 0.761603 3.415431 0.168201
v 0.633151 3.415587 0.477910
v 0.395956 3.415843 0.714888
v 0.086128 3.416161 0.843057
v -0.249163 3.416490 0.842903
v -0.558872 3.416783 0.714450
v -0.875191 3.417057 0.328653
v -0.077678 6.924402 -0.000169
v -0.940452 3.417090 -0.000226
v -0.795411 3.416901 -0.477574
v -0.409614 3.416491 -0.793893
v -0.079404 5.337432 -0.565923
v 0.141022 5.339159 -0.522112
v 0.399524 5.347512 -0.310129
v 0.496598 5.360112 0.009632
v 0.485530 5.364537 0.121917
v 0.399524 5.372713 0.329393
v 0.240605 5.378970 0.488188
v 0.032968 5.382356 0.574128
v -0.191777 5.382356 0.574128
v -0.399414 5.378970 0.488188
v -0.611561 5.368792 0.229887
v -0.079404 7.709800 -0.082958
v -0.655406 5.360112 0.009631
v -0.558332 5.347512 -0.310130
v -0.299830 5.339159 -0.522112
vt 0.250000 0.250000
vt 0.050447 0.383337
vt 0.010000 0.250000
vt 0.028269 0.158156
vt 0.116663 0.050447
vt 0.449553 0.116663
vt 0.485388 0.203178
vt 0.383337 0.050447
vt 0.158156 0.471731
vt 0.296822 0.014612
vt 0.341844 0.471731
vt 0.250000 0.490000
vt 0.490000 0.250000
vt 0.449553 0.383337
vt 0.750000 0.490000
vt 0.841844 0.471731
vt 0.949553 0.383337
vt 0.990000 0.250000
vt 0.985388 0.203178
vt 0.949553 0.116663
vt 0.883337 0.050447
vt 0.796822 0.014612
vt 0.703178 0.014612
vt 0.616663 0.050447
vt 0.528269 0.158156
vt 0.510000 0.250000
vt 0.550447 0.383337
vt 0.658156 0.471731
vt 0.203178 0.014612
vt 0.250000 0.250000
vt 0.050447 0.383337
vt 0.010000 0.250000
vt 0.028269 0.158156
vt 0.116663 0.050447
vt 0.449553 0.116663
vt 0.485388 0.203178
vt 0.383337 0.050447
vt 0.158156 0.471731
vt 0.296822 0.014612
vt 0.341844 0.471731
vt 0.250000 0.490000
vt 0.490000 0.250000
vt 0.449553 0.383337
vt 0.750000 0.490000
vt 0.841844 0.471731
vt 0.949553 0.383337
vt 0.990000 0.250000
vt 0.985388 0.203178
vt 0.949553 0.116663
vt 0.883337 0.050447
vt 0.796822 0.014612
vt 0.703178 0.014612
vt 0.616663 0.050447
vt 0.528269 0.158156
vt 0.510000 0.250000
vt 0.550447 0.383337
vt 0.658156 0.471731
vt 0.203178 0.014612
vt 0.250000 0.250000
vt 0.050447 0.383337
vt 0.010000 0.250000
vt 0.028269 0.158156
vt 0.116663 0.050447
vt 0.449553 0.116663
vt 0.485388 0.203178
vt 0.383337 0.050447
vt 0.158156 0.471731
vt 0.296822 0.014612
vt 0.341844 0.471731
vt 0.250000 0.490000
vt 0.490000 0.250000
vt 0.449553 0.383337
vt 0.750000 0.490000
vt 0.841844 0.471731
vt 0.949553 0.383337
vt 0.990000 0.250000
vt 0.985388 0.203178
vt 0.949553 0.116663
vt 0.883337 0.050447
vt 0.796822 0.014612
vt 0.703178 0.014612
vt 0.616663 0.050447
vt 0.528269 0.158156
vt 0.510000 0.250000
vt 0.550447 0.383337
vt 0.658156 0.471731
vt 0.203178 0.014612
vn -0.9556 0.1590 -0.2480
vn -0.7453 0.1671 0.6454
vn 0.8060 0.2949 0.5132
vn -0.9612 0.1599 0.2248
vn -0.6593 0.1855 -0.7286
vn 0.3850 0.2555 0.8868
vn -0.0522 0.2431 -0.9686
vn 0.9261 0.3060 -0.2207
vn 0.5718 0.2787 -0.7716
vn 0.0752 -0.9971 -0.0087
vn -0.1730 0.2172 0.9607
vn -0.9313 0.2291 -0.2831
vn -0.7527 0.2290 0.6173
vn 0.8076 0.2372 0.5400
vn -0.9535 0.2346 0.1892
vn -0.6171 0.2288 -0.7529
vn 0.3719 0.2333 0.8985
vn 0.0007 0.2378 -0.9713
vn 0.9540 0.2326 -0.1893
vn 0.6182 0.2275 -0.7523
vn -0.0010 -1.0000 0.0001
vn -0.1897 0.2382 0.9525
vn -0.9317 0.2169 -0.2914
vn -0.7526 0.2524 0.6082
vn 0.8076 0.2590 0.5298
vn -0.9537 0.2409 0.1803
vn -0.6177 0.1984 -0.7610
vn 0.3721 0.2688 0.8884
vn 0.0000 0.1995 -0.9799
vn 0.9537 0.2259 -0.1987
vn 0.6177 0.1984 -0.7610
vn -0.0000 -0.9992 0.0394
vn -0.1895 0.2752 0.9425
usemtl None
s off
f 36/49/15 38/50/15 37/51/15
f 36/49/16 35/52/16 34/53/16
f 30/54/17 29/55/17 36/49/17 31/56/17
f 36/49/18 37/51/18 35/52/18
f 36/49/19 39/57/19 38/50/19
f 36/49/20 32/58/20 31/56/20
f 36/49/21 26/59/21 25/60/21 39/57/21
f 36/49/22 29/55/22 28/61/22 27/62/22
f 36/49/23 27/62/23 26/59/23
f 25/63/24 26/64/24 27/65/24 28/66/24 29/67/24 30/68/24 31/69/24 32/70/24 33/71/24 34/72/24 35/73/24 37/74/24 38/75/24 39/76/24
f 33/77/25 32/58/25 36/49/25 34/53/25
f 51/78/26 53/79/26 52/80/26
f 51/78/27 50/81/27 49/82/27
f 45/83/28 44/84/28 51/78/28 46/85/28
f 51/78/29 52/80/29 50/81/29
f 51/78/30 54/86/30 53/79/30
f 51/78/31 47/87/31 46/85/31
f 51/78/32 41/88/32 40/89/32 54/86/32
f 51/78/33 44/84/33 43/90/33 42/91/33
f 51/78/34 42/91/34 41/88/34
f 40/92/35 41/93/35 42/94/35 43/95/35 44/96/35 45/97/35 46/98/35 47/99/35 48/100/35 49/101/35 50/102/35 52/103/35 53/104/35 54/105/35
f 48/106/36 47/87/36 51/78/36 49/82/36
f 66/107/37 68/108/37 67/109/37
f 66/107/38 65/110/38 64/111/38
f 60/112/39 59/113/39 66/107/39 61/114/39
f 66/107/40 67/109/40 65/110/40
f 66/107/41 69/115/41 68/108/41
f 66/107/42 62/116/42 61/114/42
f 66/107/43 56/117/43 55/118/43 69/115/43
f 66/107/44 59/113/44 58/119/44 57/120/44
f 66/107/45 57/120/45 56/117/45
f 55/121/46 56/122/46 57/123/46 58/124/46 59/125/46 60/126/46 61/127/46 62/128/46 63/129/46 64/130/46 65/131/46 67/132/46 68/133/46 69/134/46
f 63/135/47 62/116/47 66/107/47 64/111/47
