# Blender v2.81 (sub 16) OBJ File: 'Tree1.blend'
# www.blender.org
mtllib Tree1.mtl
o Cylinder
v 0.057403 -0.580849 -0.138582
v 0.057403 1.019151 -0.138582
v 0.083336 -0.580849 -0.124720
v 0.083336 1.019151 -0.124720
v 0.106066 -0.580849 -0.106066
v 0.106066 1.019151 -0.106066
v 0.124720 -0.580849 -0.083336
v 0.124720 1.019151 -0.083336
v 0.147118 -0.580849 0.029264
v 0.147118 1.019151 0.029264
v 0.057402 -0.580849 0.138582
v 0.057402 1.019151 0.138582
v -0.083336 -0.580849 0.124720
v -0.083336 1.019151 0.124720
v -0.106066 -0.580849 0.106066
v -0.106066 1.019151 0.106066
v -0.124721 -0.580849 0.083335
v -0.124721 1.019151 0.083335
v -0.138582 -0.580849 0.057402
v -0.138582 1.019151 0.057402
v -0.147118 -0.580849 0.029263
v -0.147118 1.019151 0.029263
v -0.150000 -0.580849 -0.000000
v -0.150000 1.019151 -0.000000
v -0.147118 -0.580849 -0.029264
v -0.147118 1.019151 -0.029264
v -0.138582 -0.580849 -0.057403
v -0.138582 1.019151 -0.057403
v -0.124720 -0.580849 -0.083336
v -0.124720 1.019151 -0.083336
v -0.083335 -0.580849 -0.124721
v -0.083335 1.019151 -0.124721
v 0.229610 0.705289 -0.554328
v 0.498882 0.705289 -0.333342
v 0.588471 0.705289 0.117054
v 0.333342 0.705289 0.498882
v 0.117054 0.705289 0.588471
v -0.333342 0.705289 0.498882
v -0.554328 0.705289 0.229610
v 0.000000 3.905289 0.000000
v -0.600000 0.705289 -0.000001
v -0.498881 0.705289 -0.333343
v -0.229609 0.705289 -0.554328
v 0.229610 0.705289 -0.554328
v 0.498882 0.705289 -0.333342
v 0.588471 0.705289 0.117054
v -0.498881 0.705289 -0.333343
v -0.229609 0.705289 -0.554328
v 0.333342 0.705289 0.498882
v 0.117054 0.705289 0.588471
v -0.554328 0.705289 0.229610
v -0.600000 0.705289 -0.000001
v -0.333342 0.705289 0.498882
v 0.166005 1.939070 -0.483664
v 0.390293 1.925713 -0.298452
v 0.463874 1.912451 0.077984
v 0.249733 1.911275 0.396355
v 0.068840 1.915754 0.470698
v -0.307088 1.931544 0.394832
v -0.490912 1.944562 0.169395
v 0.027299 4.605168 0.021139
v -0.528424 1.951323 -0.022510
v -0.443047 1.956048 -0.300731
v -0.217538 1.953031 -0.484713
v 0.166005 1.939070 -0.483664
v 0.390293 1.925713 -0.298452
v 0.463874 1.912451 0.077984
v -0.443047 1.956048 -0.300731
v -0.217538 1.953031 -0.484713
v 0.249733 1.911275 0.396355
v 0.068840 1.915754 0.470698
v -0.490912 1.944562 0.169395
v -0.528424 1.951323 -0.022510
v -0.307088 1.931544 0.394832
v 0.151865 3.274010 -0.292726
v 0.302328 3.286267 -0.171844
v 0.354495 3.297194 0.077352
v 0.215239 3.296325 0.290647
v 0.095874 3.291334 0.341654
v -0.154233 3.275922 0.294746
v -0.278206 3.264265 0.146792
v -0.027715 5.050044 -0.016064
v -0.304800 3.258695 0.019753
v -0.250624 3.255731 -0.165709
v -0.102631 3.259956 -0.289902
vt 0.937500 1.000000
vt 0.093750 0.500000
vt 0.093750 1.000000
vt 0.562500 1.000000
vt 0.562500 0.500000
vt 0.718750 0.500000
vt 0.718750 1.000000
vt 0.843750 0.500000
vt 0.843750 1.000000
vt 0.937500 0.500000
vt 0.406250 1.000000
vt 0.406250 0.500000
vt 0.375000 1.000000
vt 0.343750 0.500000
vt 0.375000 0.500000
vt 0.343750 1.000000
vt 0.312500 1.000000
vt 0.312500 0.500000
vt 0.187500 1.000000
vt 0.156250 0.500000
vt 0.187500 0.500000
vt 0.906250 0.500000
vt 0.050447 0.383337
vt 0.028269 0.341844
vt 0.341844 0.471731
vt 0.156250 1.000000
vt 0.250000 1.000000
vt 0.218750 1.000000
vt 0.250000 0.500000
vt 0.875000 1.000000
vt 0.875000 0.500000
vt 0.281250 1.000000
vt 0.281250 0.500000
vt 0.218750 0.500000
vt 0.906250 1.000000
vt 0.116663 0.449553
vt 0.014612 0.296822
vt 0.050447 0.116663
vt 0.550447 0.383337
vt 0.919706 0.419706
vt 0.616663 0.050447
vt 0.010000 0.250000
vt 0.014611 0.203179
vt 0.028269 0.158156
vt 0.080294 0.080294
vt 0.116663 0.050447
vt 0.341844 0.028269
vt 0.485388 0.203178
vt 0.449553 0.383337
vt 0.419706 0.419706
vt 0.383337 0.449553
vt 0.616663 0.449553
vt 0.841844 0.471731
vt 0.883337 0.449553
vt 0.949553 0.383337
vt 0.985388 0.203178
vt 0.841844 0.028269
vt 0.580294 0.080294
vt 0.550447 0.116663
vt 0.528269 0.158156
vt 0.514611 0.203179
vt 0.510000 0.250000
vt 0.514612 0.296822
vt 0.528269 0.341844
vt 0.841844 0.471731
vt 0.949553 0.383337
vt 0.985388 0.203178
vt 0.550447 0.383337
vt 0.658156 0.471731
vt 0.883337 0.050447
vt 0.796822 0.014612
vt 0.528269 0.158156
vt 0.250000 0.250000
vt 0.028269 0.158156
vt 0.116663 0.050447
vt 0.485388 0.203178
vt 0.383337 0.050447
vt 0.050447 0.383337
vt 0.010000 0.250000
vt 0.158156 0.471731
vt 0.296822 0.014612
vt 0.510000 0.250000
vt 0.341844 0.471731
vt 0.449553 0.383337
vt 0.616663 0.050447
vt 0.841844 0.471731
vt 0.985388 0.203178
vt 0.949553 0.383337
vt 0.550447 0.383337
vt 0.658156 0.471731
vt 0.883337 0.050447
vt 0.528269 0.158156
vt 0.796822 0.014612
vt 0.250000 0.250000
vt 0.028269 0.158156
vt 0.116663 0.050447
vt 0.485388 0.203178
vt 0.383337 0.050447
vt 0.050447 0.383337
vt 0.010000 0.250000
vt 0.158156 0.471731
vt 0.296822 0.014612
vt 0.510000 0.250000
vt 0.341844 0.471731
vt 0.449553 0.383337
vt 0.616663 0.050447
vt 0.841844 0.471731
vt 0.949553 0.383337
vt 0.985388 0.203178
vt 0.550447 0.383337
vt 0.658156 0.471731
vt 0.883337 0.050447
vt 0.796822 0.014612
vt 0.528269 0.158156
vt 0.250000 0.250000
vt 0.028269 0.158156
vt 0.116663 0.050447
vt 0.485388 0.203178
vt 0.383337 0.050447
vt 0.050447 0.383337
vt 0.010000 0.250000
vt 0.158156 0.471731
vt 0.296822 0.014612
vt 0.510000 0.250000
vt 0.341844 0.471731
vt 0.449553 0.383337
vt 0.616663 0.050447
vn -0.0980 0.0000 -0.9952
vn 0.7730 0.0000 0.6344
vn 0.9808 0.0000 -0.1951
vn -0.0980 0.0000 0.9952
vn -0.6344 0.0000 0.7730
vn -0.7730 0.0000 0.6344
vn -0.8819 0.0000 0.4714
vn -0.8819 0.0000 -0.4714
vn 0.4714 0.0000 -0.8819
vn 0.0000 1.0000 0.0000
vn -0.9952 0.0000 -0.0980
vn 0.6344 0.0000 -0.7730
vn -0.9569 0.0000 0.2903
vn 0.7730 0.0000 -0.6344
vn -0.9569 0.0000 -0.2903
vn -0.7071 0.0000 -0.7071
vn -0.9952 0.0000 0.0980
vn 0.0000 -1.0000 0.0000
vn -0.7609 0.1766 0.6244
vn 0.8193 0.1707 0.5474
vn -0.9419 0.1766 -0.2857
vn -0.6244 0.1766 -0.7609
vn 0.3764 0.1809 0.9086
vn 0.0000 0.1707 -0.9853
vn 0.9664 0.1707 -0.1922
vn 0.6244 0.1766 -0.7609
vn -0.9646 0.1809 0.1919
vn -0.1922 0.1707 0.9664
vn 0.0363 0.9989 0.0281
vn -0.7568 0.1824 0.6277
vn 0.8208 0.1447 0.5526
vn -0.9374 0.2010 -0.2843
vn -0.6175 0.2020 -0.7602
vn 0.3787 0.1583 0.9119
vn 0.0095 0.1865 -0.9824
vn 0.9708 0.1535 -0.1844
vn 0.6330 0.1757 -0.7539
vn -0.9607 0.1980 0.1948
vn -0.1889 0.1591 0.9690
vn 0.0555 -0.9979 0.0321
vn -0.7624 0.1640 0.6259
vn 0.8188 0.2071 0.5354
vn -0.9496 0.1413 -0.2797
vn -0.6387 0.1424 -0.7562
vn 0.3768 0.2100 0.9022
vn -0.0194 0.1520 -0.9882
vn 0.9577 0.1977 -0.2092
vn 0.6068 0.1819 -0.7738
vn 0.0555 -0.9979 0.0322
vn -0.9685 0.1537 0.1960
vn -0.1921 0.1826 0.9642
usemtl None
s off
f 2/1/1 31/2/1 32/3/1
f 12/4/2 11/5/2 9/6/2
f 10/7/3 7/8/3 8/9/3
f 2/1/1 1/10/1 31/2/1
f 14/11/4 13/12/4 11/5/4
f 14/11/5 16/13/5 13/12/5
f 17/14/6 15/15/6 18/16/6
f 10/7/3 9/6/3 7/8/3
f 18/16/7 20/17/7 19/18/7
f 28/19/8 29/20/8 27/21/8
f 3/22/9 1/10/9 2/1/9
f 13/12/5 16/13/5 15/15/5
f 30/23/10 28/24/10 2/25/10
f 28/19/8 30/26/8 29/20/8
f 24/27/11 26/28/11 23/29/11
f 3/22/12 6/30/12 5/31/12
f 19/18/13 22/32/13 21/33/13
f 25/34/11 23/29/11 26/28/11
f 6/30/14 8/9/14 5/31/14
f 18/16/7 19/18/7 17/14/7
f 4/35/12 6/30/12 3/22/12
f 26/28/15 28/19/15 27/21/15
f 12/4/2 9/6/2 10/7/2
f 8/9/14 7/8/14 5/31/14
f 14/11/4 11/5/4 12/4/4
f 26/28/15 27/21/15 25/34/15
f 2/25/10 32/36/10 30/23/10
f 16/13/6 18/16/6 15/15/6
f 20/17/13 22/32/13 19/18/13
f 3/22/9 2/1/9 4/35/9
f 2/25/10 26/37/10 18/38/10
f 32/3/16 29/20/16 30/26/16
f 22/32/17 24/27/17 21/33/17
f 29/39/18 5/40/18 13/41/18
f 21/33/17 24/27/17 23/29/17
f 28/24/10 26/37/10 2/25/10
f 26/37/10 24/42/10 22/43/10
f 22/43/10 20/44/10 18/38/10
f 18/38/10 16/45/10 14/46/10
f 14/46/10 12/47/10 10/48/10
f 10/48/10 8/49/10 6/50/10
f 6/50/10 4/51/10 2/25/10
f 26/37/10 22/43/10 18/38/10
f 18/38/10 14/46/10 10/48/10
f 10/48/10 6/50/10 18/38/10
f 6/50/10 2/25/10 18/38/10
f 32/3/16 31/2/16 29/20/16
f 29/39/18 31/52/18 1/53/18
f 1/53/18 3/54/18 5/40/18
f 5/40/18 7/55/18 9/56/18
f 9/56/18 11/57/18 13/41/18
f 13/41/18 15/58/18 17/59/18
f 17/59/18 19/60/18 21/61/18
f 21/61/18 23/62/18 25/63/18
f 25/63/18 27/64/18 29/39/18
f 29/39/18 1/53/18 5/40/18
f 5/40/18 9/56/18 13/41/18
f 13/41/18 17/59/18 21/61/18
f 21/61/18 25/63/18 13/41/18
f 25/63/18 29/39/18 13/41/18
f 44/65/18 45/66/18 46/67/18
f 47/68/18 48/69/18 44/65/18
f 49/70/18 50/71/18 51/72/18
f 40/73/19 39/74/19 38/75/19
f 35/76/20 40/73/20 36/77/20
f 40/73/21 42/78/21 41/79/21
f 46/67/18 49/70/18 51/72/18
f 47/68/18 44/65/18 46/67/18
f 40/73/22 43/80/22 42/78/22
f 40/73/23 37/81/23 36/77/23
f 51/72/18 52/82/18 47/68/18
f 40/73/24 33/83/24 43/80/24
f 40/73/25 35/76/25 34/84/25
f 40/73/26 34/84/26 33/83/26
f 50/71/18 53/85/18 51/72/18
f 40/73/27 41/79/27 39/74/27
f 46/67/18 51/72/18 47/68/18
f 37/81/28 40/73/28 38/75/28
f 65/86/29 67/87/29 66/88/29
f 68/89/29 65/86/29 69/90/29
f 70/91/29 72/92/29 71/93/29
f 61/94/30 60/95/30 59/96/30
f 56/97/31 61/94/31 57/98/31
f 61/94/32 63/99/32 62/100/32
f 67/87/29 72/92/29 70/91/29
f 68/89/29 67/87/29 65/86/29
f 61/94/33 64/101/33 63/99/33
f 61/94/34 58/102/34 57/98/34
f 72/92/29 68/89/29 73/103/29
f 61/94/35 54/104/35 64/101/35
f 61/94/36 56/97/36 55/105/36
f 61/94/37 55/105/37 54/104/37
f 71/93/29 72/92/29 74/106/29
f 61/94/38 62/100/38 60/95/38
f 67/87/29 68/89/29 72/92/29
f 58/102/39 61/94/39 59/96/39
f 75/107/40 76/108/40 77/109/40
f 84/110/40 85/111/40 75/107/40
f 78/112/40 79/113/40 81/114/40
f 82/115/41 81/116/41 80/117/41
f 77/118/42 82/115/42 78/119/42
f 82/115/43 84/120/43 83/121/43
f 77/109/40 78/112/40 81/114/40
f 84/110/40 75/107/40 77/109/40
f 82/115/44 85/122/44 84/120/44
f 82/115/45 79/123/45 78/119/45
f 81/114/40 83/124/40 84/110/40
f 82/115/46 75/125/46 85/122/46
f 82/115/47 77/118/47 76/126/47
f 82/115/48 76/126/48 75/125/48
f 79/113/49 80/127/49 81/114/49
f 82/115/50 83/121/50 81/116/50
f 77/109/40 81/114/40 84/110/40
f 79/123/51 82/115/51 80/117/51
