# Blender v2.81 (sub 16) OBJ File: 'Tree2.blend'
# www.blender.org
mtllib Tree2.mtl
o Cylinder_Cylinder.001
v 0.095671 -0.606788 -0.230970
v 0.095671 1.393212 -0.230970
v 0.245196 -0.606788 0.048773
v 0.245196 1.393212 0.048773
v 0.095671 -0.606788 0.230970
v 0.095671 1.393212 0.230970
v -0.138893 -0.606788 0.207867
v -0.138893 1.393212 0.207867
v -0.176777 -0.606788 0.176777
v -0.176777 1.393212 0.176777
v -0.207868 -0.606788 0.138892
v -0.207868 1.393212 0.138892
v -0.230970 -0.606788 0.095671
v -0.230970 1.393212 0.095671
v -0.250000 -0.606788 -0.000000
v -0.250000 1.393212 -0.000000
v -0.245196 -0.606788 -0.048773
v -0.245196 1.393212 -0.048773
v -0.138892 -0.606788 -0.207868
v -0.138892 1.393212 -0.207868
v 0.360586 0.990263 -0.870532
v 0.783458 0.990263 -0.523490
v 0.924152 0.990263 0.183825
v 0.523490 0.990263 0.783458
v 0.183825 0.990263 0.924152
v -0.523490 0.990263 0.783458
v -0.870532 0.990263 0.360585
v 0.000000 4.762442 0.000000
v -0.942257 0.990263 -0.000001
v -0.783457 0.990263 -0.523491
v -0.360585 0.990263 -0.870532
v 0.212610 3.124330 -0.513287
v 0.461946 3.124330 -0.308662
v 0.544902 3.124330 0.108388
v 0.308662 3.124330 0.461946
v 0.108388 3.124330 0.544902
v -0.308663 3.124330 0.461946
v -0.513287 3.124330 0.212610
v 0.000000 5.348499 0.000000
v -0.555578 3.124330 -0.000001
v -0.461946 3.124330 -0.308663
v -0.212610 3.124330 -0.513287
vt 0.406250 0.500000
vt 0.562500 1.000000
vt 0.406250 1.000000
vt 0.562500 0.500000
vt 0.718750 1.000000
vt 0.116663 0.050447
vt 0.341844 0.028269
vt 0.485388 0.203178
vt 0.718750 0.500000
vt 0.218750 0.500000
vt 0.250000 0.500000
vt 0.250000 1.000000
vt 0.985388 0.203178
vt 0.616663 0.050447
vt 0.510000 0.250000
vt 0.937500 0.500000
vt 0.093750 1.000000
vt 0.937500 1.000000
vt 0.116663 0.449553
vt 0.010000 0.250000
vt 0.514612 0.296822
vt 0.616663 0.449553
vt 0.550447 0.116663
vt 0.841844 0.028269
vt 0.528269 0.158156
vt 0.375000 1.000000
vt 0.343750 1.000000
vt 0.375000 0.500000
vt 0.093750 0.500000
vt 0.312500 0.500000
vt 0.343750 0.500000
vt 0.312500 1.000000
vt 0.014612 0.296822
vt 0.028269 0.158156
vt 0.050447 0.116663
vt 0.841844 0.471731
vt 0.341844 0.471731
vt 0.218750 1.000000
vt 0.080294 0.080294
vt 0.580294 0.080294
vt 0.250000 0.250000
vt 0.028269 0.158156
vt 0.116663 0.050447
vt 0.485388 0.203178
vt 0.383337 0.050447
vt 0.158156 0.471731
vt 0.050447 0.383337
vt 0.296822 0.014612
vt 0.341844 0.471731
vt 0.449553 0.383337
vt 0.010000 0.250000
vt 0.658156 0.471731
vt 0.841844 0.471731
vt 0.949553 0.383337
vt 0.985388 0.203178
vt 0.883337 0.050447
vt 0.796822 0.014612
vt 0.616663 0.050447
vt 0.528269 0.158156
vt 0.510000 0.250000
vt 0.550447 0.383337
vt 0.250000 0.250000
vt 0.028269 0.158156
vt 0.116663 0.050447
vt 0.485388 0.203178
vt 0.383337 0.050447
vt 0.158156 0.471731
vt 0.050447 0.383337
vt 0.296822 0.014612
vt 0.341844 0.471731
vt 0.449553 0.383337
vt 0.010000 0.250000
vt 0.658156 0.471731
vt 0.841844 0.471731
vt 0.949553 0.383337
vt 0.985388 0.203178
vt 0.883337 0.050447
vt 0.796822 0.014612
vt 0.616663 0.050447
vt 0.528269 0.158156
vt 0.510000 0.250000
vt 0.550447 0.383337
vn -0.0980 0.0000 0.9952
vn 0.7730 0.0000 0.6344
vn 0.0000 1.0000 0.0000
vn -0.9952 0.0000 -0.0980
vn 0.0000 -1.0000 0.0000
vn -0.0980 0.0000 -0.9952
vn -0.7730 0.0000 0.6344
vn -0.8819 0.0000 0.4714
vn 0.8819 0.0000 -0.4714
vn -0.9808 0.0000 0.1951
vn -0.8315 0.0000 -0.5556
vn -0.6344 0.0000 0.7730
vn -0.7518 0.2325 0.6170
vn 0.8102 0.2249 0.5413
vn -0.6170 0.2325 -0.7518
vn 0.3717 0.2380 0.8973
vn 0.0000 0.2249 -0.9744
vn 0.9557 0.2249 -0.1901
vn 0.6170 0.2325 -0.7518
vn -0.9658 0.2412 -0.0951
vn -0.1901 0.2249 0.9557
usemtl None
s off
f 7/1/1 6/2/1 8/3/1
f 5/4/2 4/5/2 6/2/2
f 8/6/3 6/7/3 4/8/3
f 5/4/2 3/9/2 4/5/2
f 17/10/4 15/11/4 16/12/4
f 3/13/5 7/14/5 15/15/5
f 1/16/6 20/17/6 2/18/6
f 20/19/3 16/20/3 8/6/3
f 15/15/5 17/21/5 19/22/5
f 7/14/5 11/23/5 15/15/5
f 3/13/5 5/24/5 7/14/5
f 19/22/5 3/13/5 15/15/5
f 11/23/5 13/25/5 15/15/5
f 10/26/7 12/27/7 9/28/7
f 1/16/6 19/29/6 20/17/6
f 13/30/8 11/31/8 14/32/8
f 20/19/3 18/33/3 16/20/3
f 4/8/3 20/19/3 8/6/3
f 16/20/3 14/34/3 12/35/3
f 2/18/9 4/5/9 3/9/9
f 12/27/8 14/32/8 11/31/8
f 12/27/7 11/31/7 9/28/7
f 19/22/5 1/36/5 3/13/5
f 4/8/3 2/37/3 20/19/3
f 14/32/10 16/12/10 13/30/10
f 18/38/11 19/29/11 17/10/11
f 16/20/3 12/35/3 8/6/3
f 18/38/11 20/17/11 19/29/11
f 7/1/12 8/3/12 10/26/12
f 7/1/1 5/4/1 6/2/1
f 7/1/12 10/26/12 9/28/12
f 2/18/9 3/9/9 1/16/9
f 15/11/10 13/30/10 16/12/10
f 12/35/3 10/39/3 8/6/3
f 16/12/4 18/38/4 17/10/4
f 7/14/5 9/40/5 11/23/5
f 28/41/13 27/42/13 26/43/13
f 23/44/14 28/41/14 24/45/14
f 28/41/15 31/46/15 30/47/15
f 28/41/16 25/48/16 24/45/16
f 28/41/17 21/49/17 31/46/17
f 28/41/18 23/44/18 22/50/18
f 28/41/19 22/50/19 21/49/19
f 28/41/20 30/47/20 29/51/20 27/42/20
f 31/52/5 21/53/5 22/54/5 23/55/5 24/56/5 25/57/5 26/58/5 27/59/5 29/60/5 30/61/5
f 25/48/21 28/41/21 26/43/21
f 39/62/13 38/63/13 37/64/13
f 34/65/14 39/62/14 35/66/14
f 39/62/15 42/67/15 41/68/15
f 39/62/16 36/69/16 35/66/16
f 39/62/17 32/70/17 42/67/17
f 39/62/18 34/65/18 33/71/18
f 39/62/19 33/71/19 32/70/19
f 39/62/20 41/68/20 40/72/20 38/63/20
f 42/73/5 32/74/5 33/75/5 34/76/5 35/77/5 36/78/5 37/79/5 38/80/5 40/81/5 41/82/5
f 36/69/21 39/62/21 37/64/21
