# Blender v2.81 (sub 16) OBJ File: 'Stalagmite1.blend'
# www.blender.org
mtllib Stalagmite1.mtl
o Cone
v 1.166210 -0.064211 -0.526456
v 1.404888 -0.140072 -0.043706
v 0.906676 -0.056287 0.963221
v 0.681909 -0.076547 1.062725
v 0.179771 -0.058281 1.264141
v -0.004507 4.270666 -0.095264
v -0.659151 0.020296 -1.033541
v 0.162365 2.417862 -0.730195
v 0.959954 -0.104944 -0.799752
v 1.114883 -0.053863 -0.630096
v 1.374778 -0.123614 -0.181761
v -0.679112 2.062921 -0.132663
v -0.615781 2.037060 -0.053844
v 0.975929 -0.057117 0.867991
v 0.716781 2.390879 -0.200939
v -0.188897 3.490735 -0.492115
v 1.021279 -0.060299 -0.768697
v 1.107105 -0.118477 -0.566204
v 1.382606 -0.173654 -0.101504
v -0.902496 1.169492 0.011749
v 0.922216 -0.096053 0.862904
v 0.775469 -0.049641 1.085776
v 0.227449 1.128457 0.867620
v -0.869682 -0.010226 0.947231
v 0.569007 1.137295 0.838868
v 0.979739 1.355052 -0.095990
v 0.326728 -0.039989 -1.279881
v -0.241975 3.291598 -0.386402
v 0.939258 -0.066808 -0.844487
v -0.222022 3.236226 -0.350916
v 1.065106 -0.099871 -0.670980
v -0.206260 3.204990 -0.314403
v -0.202081 3.167016 -0.279803
v -0.269799 3.039315 -0.154912
v 0.671198 -0.043655 1.148742
v 0.168045 -0.041066 1.279641
v -1.278973 -0.024710 -0.069300
v 0.420292 3.417899 -0.076891
v 0.412067 3.429394 -0.133159
v -0.324928 2.345728 -0.753648
v -0.439935 2.281585 -0.648935
v -0.519414 2.226744 -0.520569
v -0.638164 2.162715 -0.379568
v -0.826611 1.144553 -0.184393
v -0.876534 1.160493 -0.086634
v -0.891750 1.166071 -0.037317
v -0.646963 2.048664 -0.093109
v -0.582493 2.029967 -0.012388
v 0.741088 1.170439 0.695882
v 0.722514 2.395875 -0.153717
v 0.895650 1.357843 -0.443425
v 0.115699 1.265918 -1.017769
v 0.031467 1.265583 -1.012148
v 0.053418 2.429925 -0.771197
vt 0.070000 0.250000
vt 0.011153 0.261706
vt 0.089386 0.072833
vt 0.442091 0.392429
vt 0.427167 0.410613
vt 0.410754 0.329256
vt 0.130000 0.250000
vt 0.071153 0.261706
vt 0.131153 0.261706
vt 0.072306 0.273411
vt 0.383337 0.050447
vt 0.350003 0.100335
vt 0.372964 0.044903
vt 0.296822 0.014612
vt 0.285116 0.073459
vt 0.285116 0.013459
vt 0.796822 0.014612
vt 0.589386 0.072833
vt 0.616663 0.449553
vt 0.934629 0.401521
vt 0.955097 0.372964
vt 0.966186 0.352217
vt 0.193705 0.355321
vt 0.227039 0.305433
vt 0.215334 0.364280
vt 0.487694 0.273411
vt 0.471731 0.341844
vt 0.988847 0.261705
vt 0.927167 0.089387
vt 0.430000 0.250000
vt 0.368847 0.261705
vt 0.808077 0.481974
vt 0.200112 0.283334
vt 0.132306 0.273411
vt 0.190000 0.250000
vt 0.310000 0.250000
vt 0.131153 0.238295
vt 0.076873 0.296372
vt 0.116663 0.449553
vt 0.250000 0.250000
vt 0.250000 0.310000
vt 0.883337 0.050447
vt 0.872964 0.044903
vt 0.308847 0.261705
vt 0.207574 0.292426
vt 0.273411 0.367694
vt 0.273411 0.427694
vt 0.261705 0.368847
vt 0.434629 0.098479
vt 0.384741 0.131813
vt 0.427167 0.089387
vt 0.434629 0.401521
vt 0.174240 0.342315
vt 0.460642 0.362590
vt 0.466186 0.352217
vt 0.511153 0.261706
vt 0.367694 0.273411
vt 0.157686 0.325761
vt 0.308077 0.481974
vt 0.261705 0.428847
vt 0.455097 0.372964
vt 0.216666 0.299888
vt 0.785116 0.013459
vt 0.960642 0.362590
vt 0.488847 0.261705
vt 0.490000 0.250000
vt 0.419706 0.080294
vt 0.392429 0.057909
vt 0.919706 0.080294
vt 0.892429 0.057909
vt 0.971731 0.341844
vt 0.987694 0.273411
vt 0.927167 0.410613
vt 0.990000 0.250000
vt 0.934629 0.098479
vt 0.942091 0.392429
vn -0.8973 0.2586 0.3576
vn 0.6518 0.2239 -0.7246
vn -0.9303 0.2905 -0.2240
vn -0.9208 0.2357 -0.3108
vn 0.9908 0.1073 0.0823
vn 0.8558 0.1327 0.5001
vn -0.0398 -0.9990 -0.0196
vn 0.4377 -0.8386 -0.3244
vn -0.7284 0.3025 -0.6147
vn 0.8541 0.1908 -0.4839
vn -0.1830 -0.9831 -0.0082
vn 0.9547 0.2453 0.1685
vn -0.0712 -0.9966 -0.0410
vn -0.9178 0.3823 -0.1067
vn 0.8767 0.2274 0.4239
vn -0.7226 0.2864 0.6292
vn -0.9110 0.1534 -0.3828
vn -0.9220 0.0212 0.3867
vn -0.9250 0.3068 -0.2240
vn 0.1137 -0.9232 0.3672
vn 0.5124 0.2901 -0.8083
vn -0.8634 0.0604 0.5010
vn 0.3647 0.2116 -0.9068
vn -0.1690 0.1051 0.9800
vn 0.6340 -0.4186 -0.6502
vn -0.8754 0.2097 -0.4355
vn -0.8636 0.0911 -0.4958
vn 0.9642 0.1184 0.2371
vn 0.0582 -0.9983 -0.0092
vn 0.6704 0.2776 -0.6881
vn -0.7147 0.3100 0.6270
vn -0.9010 0.3014 -0.3121
vn -0.7343 0.2564 0.6286
vn 0.9115 0.2436 0.3315
vn -0.2315 0.1449 -0.9620
vn 0.7721 -0.3880 -0.5034
vn 0.0725 0.2971 0.9521
vn -0.6609 -0.0387 -0.7495
vn -0.8467 0.1644 0.5061
vn -0.2273 -0.7325 0.6416
vn 0.9178 0.2411 -0.3154
vn -0.5672 0.1368 -0.8121
vn 0.7773 -0.4872 -0.3981
vn -0.4734 0.3546 -0.8063
vn -0.0761 -0.9971 0.0058
vn 0.8569 0.2275 -0.4625
vn 0.9840 0.1528 0.0918
vn 0.6659 0.2612 0.6988
vn -0.8504 0.0302 0.5252
vn 0.9650 0.2541 0.0643
vn -0.7879 0.3578 -0.5011
vn -0.0796 -0.9968 0.0049
vn -0.8671 0.1657 -0.4698
vn -0.2788 0.3317 0.9012
vn -0.2768 0.1493 0.9493
vn -0.8366 0.2772 -0.4724
vn -0.0660 0.2034 -0.9769
vn 0.9032 0.2685 0.3348
vn -0.0662 0.1861 -0.9803
vn 0.2042 -0.9411 0.2696
vn 0.6759 0.2437 -0.6956
vn 0.5074 0.3417 -0.7911
vn 0.9549 0.2855 -0.0813
vn -0.7692 0.0199 -0.6387
vn -0.0757 -0.9971 -0.0101
vn -0.8166 0.2655 -0.5125
vn -0.5810 0.2379 0.7784
vn 0.6062 0.2120 -0.7665
vn -0.0436 -0.9989 -0.0182
vn 0.5868 -0.6602 -0.4688
vn 0.7444 -0.4485 -0.4946
vn 0.0744 0.2591 0.9630
vn 0.4616 0.1390 -0.8761
vn 0.2292 0.2270 -0.9465
vn 0.2525 -0.8855 0.3901
vn 0.4654 -0.5556 -0.6890
vn 0.6236 0.3260 0.7105
vn 0.5907 0.2471 0.7681
vn -0.9337 0.2150 -0.2864
vn -0.3112 0.1886 -0.9314
vn -0.0237 0.2253 -0.9740
vn 0.9457 0.2906 -0.1456
vn -0.7239 0.2416 0.6462
vn -0.7264 0.1926 0.6598
vn -0.8348 0.3178 0.4496
vn -0.9496 -0.1759 0.2595
vn 0.9698 0.2005 -0.1390
vn -0.2168 0.2017 -0.9551
vn -0.6837 0.3018 0.6645
vn 0.8892 0.2259 0.3978
vn 0.2094 0.3023 0.9299
vn -0.6192 0.1879 0.7624
vn 0.5352 -0.7806 0.3229
vn 0.8079 0.1988 -0.5548
vn 0.3647 0.3139 -0.8766
vn 0.4943 0.5003 0.7109
vn 0.8947 0.4448 -0.0399
vn -0.9579 0.1285 0.2568
vn -0.8606 0.3201 -0.3961
vn 0.6593 -0.5461 -0.5168
vn -0.6992 0.3065 0.6459
vn 0.4794 -0.8264 0.2953
vn 0.5695 0.2388 -0.7865
vn -0.4999 0.5296 0.6853
usemtl None
s off
f 20/1/1 37/2/1 24/3/1
f 17/4/2 29/5/2 51/6/2
f 20/1/3 13/7/3 46/8/3
f 46/8/4 47/9/4 45/10/4
f 4/11/5 25/12/5 35/13/5
f 5/14/6 23/15/6 36/16/6
f 5/17/7 24/18/7 7/19/7
f 9/20/8 31/21/8 18/22/8
f 41/23/9 28/24/9 40/25/9
f 11/26/10 1/27/10 51/6/10
f 19/28/11 21/29/11 18/22/11
f 26/30/12 11/26/12 50/31/12
f 7/19/13 27/32/13 9/20/13
f 33/33/14 12/34/14 34/35/14
f 50/31/15 38/36/15 25/12/15
f 13/7/16 20/1/16 48/37/16
f 44/38/17 41/23/17 7/39/17
f 40/25/18 6/40/18 16/41/18
f 46/8/19 37/2/19 20/1/19
f 4/42/20 35/43/20 5/17/20
f 16/41/21 6/40/21 39/44/21
f 6/40/22 28/24/22 32/45/22
f 8/46/23 52/47/23 54/48/23
f 14/49/24 49/50/24 21/51/24
f 17/4/25 9/52/25 29/5/25
f 34/35/26 48/37/26 6/40/26
f 42/53/27 41/23/27 44/38/27
f 10/54/28 51/6/28 18/55/28
f 24/18/29 37/56/29 7/19/29
f 15/57/30 51/6/30 8/46/30
f 48/37/31 34/35/31 13/7/31
f 37/2/32 46/8/32 45/10/32
f 44/38/33 33/33/33 43/58/33
f 49/50/34 26/30/34 50/31/34
f 27/59/35 7/39/35 53/60/35
f 10/54/36 31/61/36 17/4/36
f 25/12/37 6/40/37 23/15/37
f 41/23/38 40/25/38 53/60/38
f 30/62/39 42/53/39 32/45/39
f 5/17/40 36/63/40 24/18/40
f 50/31/41 11/26/41 51/6/41
f 33/33/42 44/38/42 12/34/42
f 31/21/43 10/64/43 18/22/43
f 6/40/44 40/25/44 28/24/44
f 21/29/45 4/42/45 18/22/45
f 19/65/46 26/30/46 2/66/46
f 3/67/47 21/51/47 49/50/47
f 25/12/48 22/68/48 3/67/48
f 28/24/49 41/23/49 30/62/49
f 26/30/50 19/65/50 11/26/50
f 43/58/51 32/45/51 42/53/51
f 7/19/52 18/22/52 4/42/52
f 45/10/53 12/34/53 44/38/53
f 24/3/54 36/16/54 23/15/54
f 22/68/55 25/12/55 4/11/55
f 37/2/56 45/10/56 44/38/56
f 53/60/57 54/48/57 52/47/57
f 49/50/58 2/66/58 26/30/58
f 53/60/59 52/47/59 27/59/59
f 3/69/60 22/70/60 4/42/60
f 39/44/61 15/57/61 8/46/61
f 16/41/62 39/44/62 8/46/62
f 15/57/63 39/44/63 38/36/63
f 43/58/64 42/53/64 44/38/64
f 7/19/65 9/20/65 18/22/65
f 7/39/66 37/2/66 44/38/66
f 20/1/67 23/15/67 48/37/67
f 27/59/68 8/46/68 51/6/68
f 4/42/69 5/17/69 7/19/69
f 1/71/70 11/72/70 19/28/70
f 18/22/71 1/71/71 19/28/71
f 35/13/72 25/12/72 23/15/72
f 1/27/73 18/55/73 51/6/73
f 52/47/74 8/46/74 27/59/74
f 21/29/75 3/69/75 4/42/75
f 27/32/76 29/73/76 9/20/76
f 38/36/77 6/40/77 25/12/77
f 25/12/78 3/67/78 49/50/78
f 33/33/79 34/35/79 6/40/79
f 41/23/80 53/60/80 7/39/80
f 40/25/81 16/41/81 53/60/81
f 50/31/82 15/57/82 38/36/82
f 47/9/83 46/8/83 13/7/83
f 12/34/84 45/10/84 47/9/84
f 32/45/85 43/58/85 33/33/85
f 28/24/86 30/62/86 32/45/86
f 15/57/87 50/31/87 51/6/87
f 54/48/88 53/60/88 16/41/88
f 12/34/89 47/9/89 34/35/89
f 49/50/90 14/49/90 2/66/90
f 23/15/91 5/14/91 35/13/91
f 23/15/92 6/40/92 48/37/92
f 2/74/93 14/75/93 21/29/93
f 51/6/94 10/54/94 17/4/94
f 8/46/95 54/48/95 16/41/95
f 50/31/96 25/12/96 49/50/96
f 6/40/97 38/36/97 39/44/97
f 32/45/98 33/33/98 6/40/98
f 42/53/99 30/62/99 41/23/99
f 9/20/100 17/76/100 31/21/100
f 34/35/101 47/9/101 13/7/101
f 19/28/102 2/74/102 21/29/102
f 29/5/103 27/59/103 51/6/103
f 20/1/104 24/3/104 23/15/104
